<?xml version="1.0" encoding="UTF-8" standalone="no"?>
<!DOCTYPE svg PUBLIC "-//W3C//DTD SVG 1.1//EN" "http://www.w3.org/Graphics/SVG/1.1/DTD/svg11.dtd">
<svg width="100%" height="100%" viewBox="0 0 427 132" version="1.1" xmlns="http://www.w3.org/2000/svg" xmlns:xlink="http://www.w3.org/1999/xlink" xml:space="preserve" xmlns:serif="http://www.serif.com/" style="fill-rule:evenodd;clip-rule:evenodd;stroke-linejoin:round;stroke-miterlimit:2;">
    <g transform="matrix(1,0,0,1,-26.7293,-19.6631)">
        <g transform="matrix(1,0,0,1,-145.081,-467.636)">
            <g transform="matrix(1,0,0,1,4.49084,-13.7763)">
                <g transform="matrix(0.493311,0,0,0.493311,37.5476,428.32)">
                    <g transform="matrix(1,0,0,1,-0.186929,0)">
                        <path d="M263.25,362.872L263.25,162.331L285.096,162.331L285.096,361.049L336.957,361.049C372.415,361.049 382.867,321.753 382.867,321.753L376.35,362.872L263.25,362.872Z"/>
                    </g>
                    <g transform="matrix(1,0,0.424622,1,-174.689,0)">
                        <path d="M484.261,334.908C460.867,335.809 434.141,349.148 411.625,370.447C398.301,383.051 388.611,396.577 379.367,404.759C372.469,410.864 365.787,414.232 358.263,412.933C350.778,411.641 349.716,405.062 351.425,397.453C353.783,386.95 361.368,374.623 361.368,374.623C361.376,374.611 361.384,374.599 361.392,374.586C391.717,326.903 476.82,238.885 484.261,231.221L484.261,231.156L507.033,207.727L507.033,410.958L484.261,410.958L484.261,334.908ZM484.261,235.924C467.851,252.933 392.94,331.421 364.956,375.41C364.534,376.1 357.811,387.181 355.681,396.668C354.351,402.591 354.749,407.978 360.575,408.984C368.078,410.279 374.478,405.441 381.531,398.155C389.441,389.985 398.034,378.826 409.152,368.309C432.414,346.305 459.95,332.445 484.261,330.987L484.261,235.924Z" style="fill:rgb(53,143,153);"/>
                    </g>
                </g>
                <g transform="matrix(0.973093,0,0,0.973093,-27.3638,286.105)">
                    <g transform="matrix(0.266274,0,0.107584,0.253364,406.822,208.633)">
                        <path d="M484.261,334.908C460.867,335.809 434.141,349.148 411.625,370.447C398.301,383.051 388.611,396.577 379.367,404.759C372.469,410.864 365.787,414.232 358.263,412.933C350.778,411.641 349.716,405.062 351.425,397.453C353.783,386.95 361.368,374.623 361.368,374.623C361.376,374.611 361.384,374.599 361.392,374.586C391.717,326.903 476.82,238.885 484.261,231.221L484.261,231.156L507.033,207.727L507.033,410.958L484.261,410.958L484.261,334.908ZM484.261,235.924C467.851,252.933 392.94,331.421 364.956,375.41C364.534,376.1 357.811,387.181 355.681,396.668C354.351,402.591 354.749,407.978 360.575,408.984C368.078,410.279 374.478,405.441 381.531,398.155C389.441,389.985 398.034,378.826 409.152,368.309C432.414,346.305 459.95,332.445 484.261,330.987L484.261,235.924Z"/>
                    </g>
                    <g transform="matrix(1,0,0,1,103.443,-171.771)">
                        <path d="M490.253,433.035L506.063,433.035C506.063,433.035 523.109,432.555 523.109,444.67C523.109,444.67 523.249,454.637 512.677,456.612C517.953,458.42 522.012,463.855 524.016,472.734C526.366,483.141 534.959,485.097 534.959,485.097C524.018,485.097 518.936,481.567 517.77,469.442C516.603,457.317 509.539,456.95 509.539,456.95L509.543,456.938C509.295,456.946 509.043,456.95 508.786,456.95C501.869,456.95 498.248,452.604 496.379,447.819L496.379,485.097L490.253,485.097L490.253,433.035ZM496.379,442.972C497.236,447.21 500.049,455.676 508.849,455.676C508.849,455.676 517.693,455.732 517.693,444.87C517.693,434.236 510.014,433.857 496.379,433.846L496.379,442.972Z"/>
                    </g>
                    <g transform="matrix(1.04465,0,0,1,87.5118,-171.771)">
                        <path d="M395.34,481.18L395.34,481.241C391.487,483.686 386.95,485.097 382.095,485.097C368.138,485.097 356.807,473.433 356.807,459.066C356.807,444.699 368.138,433.035 382.095,433.035C388.427,433.035 394.219,435.436 398.657,439.4L398.657,451.497C396.215,441.709 388.968,434.602 380.418,434.602C369.866,434.602 361.299,445.425 361.299,458.754C361.299,472.084 369.866,482.906 380.418,482.906C380.603,482.906 380.787,482.903 380.971,482.896L380.971,482.906C386.769,482.906 391.945,481.405 395.325,479.06L395.325,462.035L382.978,462.035C375.115,462.035 373.33,467.248 373.33,467.248L373.33,460.089L399.979,460.058L399.979,477.053C398.616,478.799 395.648,480.958 395.34,481.18Z"/>
                    </g>
                    <g transform="matrix(0.259608,0,0,0.259608,274.24,219.121)">
                        <path d="M263.25,362.872L263.25,162.331L285.096,162.331L285.096,361.049L336.957,361.049C372.415,361.049 382.867,321.753 382.867,321.753L376.35,362.872L263.25,362.872Z"/>
                    </g>
                    <g transform="matrix(0.932889,0,0,0.932889,124.784,-140.955)">
                        <path d="M316.959,431.153L319.033,431.153C318.981,441.508 318.938,446.987 318.916,465.954C318.905,475.779 311.888,485.143 300.571,486.732C287.202,488.609 275.927,478.688 275.252,466.246C275.007,461.749 275.134,461.751 275.126,457.248L275.126,431.153L281.441,431.153C281.464,432.614 281.481,434.441 281.481,436.741C281.481,438.163 281.496,461.144 281.444,464.723C281.432,465.521 280.081,473.931 287.395,480.357C291.895,484.31 296.778,484.575 297.667,484.623C297.827,484.632 297.988,484.638 298.148,484.647L298.153,484.647C298.394,484.66 305.524,485.236 311.517,479.316C315.976,474.91 317.075,469.479 317.078,466.196C317.083,460.794 317.077,458.749 317.038,449.659C316.706,436.293 311.584,431.252 311.584,431.252L316.959,431.164L316.959,431.153Z"/>
                    </g>
                    <g transform="matrix(1,0,0,0.740083,102.36,-43.9183)">
                        <path d="M351.511,511.97C351.74,512.202 351.794,512.636 351.633,512.956C351.472,513.276 351.153,513.368 350.909,513.165C336.752,500.379 327.424,478.615 327.424,453.937C327.424,429.259 336.752,407.495 350.909,394.71C351.153,394.516 351.465,394.611 351.624,394.926C351.783,395.242 351.733,395.669 351.51,395.904C340.018,409.195 332.588,430.252 332.588,453.937C332.588,477.622 340.018,498.679 351.511,511.97ZM409.006,395.904C408.777,395.672 408.723,395.238 408.884,394.918C409.045,394.598 409.364,394.506 409.608,394.709C423.765,407.495 433.093,429.259 433.093,453.937C433.093,478.615 423.765,500.379 409.608,513.164C409.365,513.358 409.052,513.263 408.893,512.948C408.734,512.633 408.784,512.205 409.007,511.97C420.5,498.679 427.929,477.622 427.929,453.937C427.929,430.252 420.5,409.195 409.006,395.904Z"/>
                    </g>
                </g>
            </g>
            <g transform="matrix(1,0,0,1,145.081,467.636)">
                <rect x="26.729" y="19.663" width="426.541" height="131.085" style="fill:none;"/>
            </g>
        </g>
    </g>
</svg>
